<mxfile host="Electron" agent="Mozilla/5.0 (Windows NT 10.0; Win64; x64) AppleWebKit/537.36 (KHTML, like Gecko) draw.io/24.7.17 Chrome/128.0.6613.36 Electron/32.0.1 Safari/537.36" version="24.7.17">
  <diagram name="第 1 页" id="tR9Apc9nrOMI4J_6i4HN">
    <mxGraphModel dx="1247" dy="727" grid="1" gridSize="10" guides="1" tooltips="1" connect="1" arrows="1" fold="1" page="1" pageScale="1" pageWidth="3300" pageHeight="2339" math="0" shadow="0">
      <root>
        <mxCell id="0" />
        <mxCell id="1" parent="0" />
        <mxCell id="sFdPxBW2ZE7_c-rL9tYe-16" style="edgeStyle=none;rounded=0;orthogonalLoop=1;jettySize=auto;html=1;" edge="1" parent="1" source="sFdPxBW2ZE7_c-rL9tYe-1" target="sFdPxBW2ZE7_c-rL9tYe-8">
          <mxGeometry relative="1" as="geometry" />
        </mxCell>
        <mxCell id="sFdPxBW2ZE7_c-rL9tYe-1" value="Actor" style="shape=umlActor;verticalLabelPosition=bottom;verticalAlign=top;html=1;outlineConnect=0;" vertex="1" parent="1">
          <mxGeometry x="900" y="580" width="30" height="60" as="geometry" />
        </mxCell>
        <mxCell id="sFdPxBW2ZE7_c-rL9tYe-2" value="锁集存储必要用例&lt;div&gt;1.根据锁名，获取普通锁，用双检锁检验存在与否&lt;/div&gt;&lt;div&gt;2.&lt;span style=&quot;background-color: initial;&quot;&gt;根据锁名，&lt;/span&gt;&lt;span style=&quot;background-color: initial;&quot;&gt;获取读写锁，同上&lt;/span&gt;&lt;/div&gt;&lt;div&gt;&lt;br&gt;&lt;/div&gt;&lt;div&gt;重写普通锁，加入自控制标识&lt;/div&gt;&lt;div&gt;重写读写锁，加入自控制标识&lt;/div&gt;" style="text;html=1;align=center;verticalAlign=middle;whiteSpace=wrap;rounded=0;" vertex="1" parent="1">
          <mxGeometry x="820" y="300" width="390" height="140" as="geometry" />
        </mxCell>
        <mxCell id="sFdPxBW2ZE7_c-rL9tYe-7" value="获取普通锁" style="ellipse;whiteSpace=wrap;html=1;" vertex="1" parent="1">
          <mxGeometry x="990" y="480" width="120" height="80" as="geometry" />
        </mxCell>
        <mxCell id="sFdPxBW2ZE7_c-rL9tYe-8" value="获取读写锁" style="ellipse;whiteSpace=wrap;html=1;" vertex="1" parent="1">
          <mxGeometry x="990" y="620" width="120" height="80" as="geometry" />
        </mxCell>
        <mxCell id="sFdPxBW2ZE7_c-rL9tYe-15" style="edgeStyle=none;rounded=0;orthogonalLoop=1;jettySize=auto;html=1;entryX=0.061;entryY=0.769;entryDx=0;entryDy=0;entryPerimeter=0;" edge="1" parent="1" source="sFdPxBW2ZE7_c-rL9tYe-1" target="sFdPxBW2ZE7_c-rL9tYe-7">
          <mxGeometry relative="1" as="geometry" />
        </mxCell>
        <mxCell id="sFdPxBW2ZE7_c-rL9tYe-17" value="锁操作与死锁检测用例&lt;div&gt;1.根据锁对象，自动上锁与解锁&lt;/div&gt;&lt;div&gt;2.根据锁对象，对普通锁手动进行上锁&lt;/div&gt;&lt;div&gt;3.根据锁对象，&lt;span style=&quot;background-color: initial;&quot;&gt;对普通锁手动进行解锁&lt;/span&gt;&lt;/div&gt;&lt;div&gt;4.根据读写锁对象，对读写锁上读锁&lt;/div&gt;&lt;div&gt;5.根据读写锁对象，对读写锁上写锁&lt;br&gt;&lt;/div&gt;&lt;div&gt;6.&lt;span style=&quot;background-color: initial;&quot;&gt;根据读写锁对象，对读写锁解读锁&lt;/span&gt;&lt;/div&gt;&lt;div&gt;7.根据读写锁对象，对读写锁解写锁&lt;span style=&quot;background-color: initial;&quot;&gt;&lt;br&gt;&lt;/span&gt;&lt;/div&gt;&lt;div&gt;8.根据读写锁对象&lt;span style=&quot;background-color: initial;&quot;&gt;，自动上读锁与解读锁&lt;/span&gt;&lt;/div&gt;&lt;div&gt;&lt;span style=&quot;background-color: initial;&quot;&gt;9.根据读写锁对象，自动上写锁与解写锁&lt;/span&gt;&lt;/div&gt;" style="text;html=1;align=center;verticalAlign=middle;whiteSpace=wrap;rounded=0;" vertex="1" parent="1">
          <mxGeometry x="785" y="1010" width="285" height="180" as="geometry" />
        </mxCell>
        <mxCell id="sFdPxBW2ZE7_c-rL9tYe-56" style="edgeStyle=none;rounded=0;orthogonalLoop=1;jettySize=auto;html=1;" edge="1" parent="1" source="sFdPxBW2ZE7_c-rL9tYe-18" target="sFdPxBW2ZE7_c-rL9tYe-31">
          <mxGeometry relative="1" as="geometry" />
        </mxCell>
        <mxCell id="sFdPxBW2ZE7_c-rL9tYe-61" value="" style="edgeStyle=orthogonalEdgeStyle;rounded=0;orthogonalLoop=1;jettySize=auto;html=1;entryX=0.5;entryY=0;entryDx=0;entryDy=0;" edge="1" parent="1" source="sFdPxBW2ZE7_c-rL9tYe-18" target="sFdPxBW2ZE7_c-rL9tYe-27">
          <mxGeometry relative="1" as="geometry">
            <Array as="points">
              <mxPoint x="925" y="1200" />
              <mxPoint x="1610" y="1200" />
            </Array>
          </mxGeometry>
        </mxCell>
        <mxCell id="sFdPxBW2ZE7_c-rL9tYe-72" style="edgeStyle=none;rounded=0;orthogonalLoop=1;jettySize=auto;html=1;" edge="1" parent="1" source="sFdPxBW2ZE7_c-rL9tYe-18" target="sFdPxBW2ZE7_c-rL9tYe-70">
          <mxGeometry relative="1" as="geometry" />
        </mxCell>
        <mxCell id="sFdPxBW2ZE7_c-rL9tYe-18" value="Actor" style="shape=umlActor;verticalLabelPosition=bottom;verticalAlign=top;html=1;outlineConnect=0;" vertex="1" parent="1">
          <mxGeometry x="910" y="1360" width="30" height="60" as="geometry" />
        </mxCell>
        <mxCell id="sFdPxBW2ZE7_c-rL9tYe-63" style="edgeStyle=none;rounded=0;orthogonalLoop=1;jettySize=auto;html=1;" edge="1" parent="1" source="sFdPxBW2ZE7_c-rL9tYe-20" target="sFdPxBW2ZE7_c-rL9tYe-23">
          <mxGeometry relative="1" as="geometry" />
        </mxCell>
        <mxCell id="sFdPxBW2ZE7_c-rL9tYe-20" value="Actor" style="shape=umlActor;verticalLabelPosition=bottom;verticalAlign=top;html=1;outlineConnect=0;" vertex="1" parent="1">
          <mxGeometry x="1720" y="520" width="30" height="60" as="geometry" />
        </mxCell>
        <mxCell id="sFdPxBW2ZE7_c-rL9tYe-21" value="线程对象管理&lt;div&gt;1.根据给的线程名，获取当前线程对象。双检锁在内部利用当前线程号初始化线程对象。&lt;/div&gt;&lt;div&gt;&lt;br&gt;&lt;/div&gt;" style="text;html=1;align=center;verticalAlign=middle;whiteSpace=wrap;rounded=0;" vertex="1" parent="1">
          <mxGeometry x="1750" y="370" width="210" height="100" as="geometry" />
        </mxCell>
        <mxCell id="sFdPxBW2ZE7_c-rL9tYe-23" value="获取线程对象" style="ellipse;whiteSpace=wrap;html=1;" vertex="1" parent="1">
          <mxGeometry x="1820" y="500" width="120" height="80" as="geometry" />
        </mxCell>
        <mxCell id="sFdPxBW2ZE7_c-rL9tYe-25" value="自动锁与解锁" style="ellipse;whiteSpace=wrap;html=1;" vertex="1" parent="1">
          <mxGeometry x="1190" y="1240" width="120" height="80" as="geometry" />
        </mxCell>
        <mxCell id="sFdPxBW2ZE7_c-rL9tYe-26" value="解锁" style="ellipse;whiteSpace=wrap;html=1;" vertex="1" parent="1">
          <mxGeometry x="1550" y="1400" width="120" height="80" as="geometry" />
        </mxCell>
        <mxCell id="sFdPxBW2ZE7_c-rL9tYe-27" value="上锁" style="ellipse;whiteSpace=wrap;html=1;" vertex="1" parent="1">
          <mxGeometry x="1550" y="1280" width="120" height="80" as="geometry" />
        </mxCell>
        <mxCell id="sFdPxBW2ZE7_c-rL9tYe-28" value="读锁解锁" style="ellipse;whiteSpace=wrap;html=1;" vertex="1" parent="1">
          <mxGeometry x="600" y="1270" width="120" height="80" as="geometry" />
        </mxCell>
        <mxCell id="sFdPxBW2ZE7_c-rL9tYe-29" value="读锁上锁" style="ellipse;whiteSpace=wrap;html=1;" vertex="1" parent="1">
          <mxGeometry x="620" y="1500" width="120" height="80" as="geometry" />
        </mxCell>
        <mxCell id="sFdPxBW2ZE7_c-rL9tYe-42" style="edgeStyle=none;rounded=0;orthogonalLoop=1;jettySize=auto;html=1;" edge="1" parent="1" source="sFdPxBW2ZE7_c-rL9tYe-30" target="sFdPxBW2ZE7_c-rL9tYe-26">
          <mxGeometry relative="1" as="geometry">
            <mxPoint x="1190" y="1640.0000000000002" as="targetPoint" />
          </mxGeometry>
        </mxCell>
        <mxCell id="sFdPxBW2ZE7_c-rL9tYe-50" value="include" style="edgeLabel;html=1;align=center;verticalAlign=middle;resizable=0;points=[];" vertex="1" connectable="0" parent="sFdPxBW2ZE7_c-rL9tYe-42">
          <mxGeometry x="0.3321" y="-1" relative="1" as="geometry">
            <mxPoint as="offset" />
          </mxGeometry>
        </mxCell>
        <mxCell id="sFdPxBW2ZE7_c-rL9tYe-30" value="写锁解锁" style="ellipse;whiteSpace=wrap;html=1;" vertex="1" parent="1">
          <mxGeometry x="1330" y="1530" width="120" height="80" as="geometry" />
        </mxCell>
        <mxCell id="sFdPxBW2ZE7_c-rL9tYe-43" style="edgeStyle=none;rounded=0;orthogonalLoop=1;jettySize=auto;html=1;" edge="1" parent="1" source="sFdPxBW2ZE7_c-rL9tYe-31" target="sFdPxBW2ZE7_c-rL9tYe-27">
          <mxGeometry relative="1" as="geometry" />
        </mxCell>
        <mxCell id="sFdPxBW2ZE7_c-rL9tYe-51" value="include" style="edgeLabel;html=1;align=center;verticalAlign=middle;resizable=0;points=[];" vertex="1" connectable="0" parent="sFdPxBW2ZE7_c-rL9tYe-43">
          <mxGeometry x="0.2572" y="1" relative="1" as="geometry">
            <mxPoint as="offset" />
          </mxGeometry>
        </mxCell>
        <mxCell id="sFdPxBW2ZE7_c-rL9tYe-37" style="edgeStyle=none;rounded=0;orthogonalLoop=1;jettySize=auto;html=1;entryX=1.02;entryY=0.556;entryDx=0;entryDy=0;entryPerimeter=0;" edge="1" parent="1" source="sFdPxBW2ZE7_c-rL9tYe-18" target="sFdPxBW2ZE7_c-rL9tYe-28">
          <mxGeometry relative="1" as="geometry" />
        </mxCell>
        <mxCell id="sFdPxBW2ZE7_c-rL9tYe-39" style="edgeStyle=none;rounded=0;orthogonalLoop=1;jettySize=auto;html=1;entryX=1;entryY=0.5;entryDx=0;entryDy=0;" edge="1" parent="1" source="sFdPxBW2ZE7_c-rL9tYe-18" target="sFdPxBW2ZE7_c-rL9tYe-29">
          <mxGeometry relative="1" as="geometry" />
        </mxCell>
        <mxCell id="sFdPxBW2ZE7_c-rL9tYe-46" style="edgeStyle=none;rounded=0;orthogonalLoop=1;jettySize=auto;html=1;entryX=0.196;entryY=0.145;entryDx=0;entryDy=0;entryPerimeter=0;" edge="1" parent="1" source="sFdPxBW2ZE7_c-rL9tYe-25" target="sFdPxBW2ZE7_c-rL9tYe-27">
          <mxGeometry relative="1" as="geometry" />
        </mxCell>
        <mxCell id="sFdPxBW2ZE7_c-rL9tYe-48" value="include" style="edgeLabel;html=1;align=center;verticalAlign=middle;resizable=0;points=[];" vertex="1" connectable="0" parent="sFdPxBW2ZE7_c-rL9tYe-46">
          <mxGeometry x="-0.1006" y="2" relative="1" as="geometry">
            <mxPoint as="offset" />
          </mxGeometry>
        </mxCell>
        <mxCell id="sFdPxBW2ZE7_c-rL9tYe-55" style="edgeStyle=none;rounded=0;orthogonalLoop=1;jettySize=auto;html=1;entryX=0.095;entryY=0.749;entryDx=0;entryDy=0;entryPerimeter=0;" edge="1" parent="1" source="sFdPxBW2ZE7_c-rL9tYe-18" target="sFdPxBW2ZE7_c-rL9tYe-25">
          <mxGeometry relative="1" as="geometry" />
        </mxCell>
        <mxCell id="sFdPxBW2ZE7_c-rL9tYe-60" style="edgeStyle=none;rounded=0;orthogonalLoop=1;jettySize=auto;html=1;entryX=0.013;entryY=0.299;entryDx=0;entryDy=0;entryPerimeter=0;" edge="1" parent="1" source="sFdPxBW2ZE7_c-rL9tYe-18" target="sFdPxBW2ZE7_c-rL9tYe-30">
          <mxGeometry relative="1" as="geometry" />
        </mxCell>
        <mxCell id="sFdPxBW2ZE7_c-rL9tYe-62" style="edgeStyle=orthogonalEdgeStyle;rounded=0;orthogonalLoop=1;jettySize=auto;html=1;entryX=0.5;entryY=1;entryDx=0;entryDy=0;" edge="1" parent="1" source="sFdPxBW2ZE7_c-rL9tYe-18" target="sFdPxBW2ZE7_c-rL9tYe-26">
          <mxGeometry relative="1" as="geometry">
            <mxPoint x="935" y="1370" as="sourcePoint" />
            <mxPoint x="1435" y="1290" as="targetPoint" />
            <Array as="points">
              <mxPoint x="935" y="1630" />
              <mxPoint x="1610" y="1630" />
            </Array>
          </mxGeometry>
        </mxCell>
        <mxCell id="sFdPxBW2ZE7_c-rL9tYe-97" style="edgeStyle=none;rounded=0;orthogonalLoop=1;jettySize=auto;html=1;" edge="1" parent="1" source="sFdPxBW2ZE7_c-rL9tYe-65" target="sFdPxBW2ZE7_c-rL9tYe-88">
          <mxGeometry relative="1" as="geometry" />
        </mxCell>
        <mxCell id="sFdPxBW2ZE7_c-rL9tYe-101" style="edgeStyle=none;rounded=0;orthogonalLoop=1;jettySize=auto;html=1;" edge="1" parent="1" source="sFdPxBW2ZE7_c-rL9tYe-65" target="sFdPxBW2ZE7_c-rL9tYe-89">
          <mxGeometry relative="1" as="geometry" />
        </mxCell>
        <mxCell id="sFdPxBW2ZE7_c-rL9tYe-102" style="edgeStyle=none;rounded=0;orthogonalLoop=1;jettySize=auto;html=1;" edge="1" parent="1" source="sFdPxBW2ZE7_c-rL9tYe-65" target="sFdPxBW2ZE7_c-rL9tYe-90">
          <mxGeometry relative="1" as="geometry" />
        </mxCell>
        <mxCell id="sFdPxBW2ZE7_c-rL9tYe-103" style="edgeStyle=none;rounded=0;orthogonalLoop=1;jettySize=auto;html=1;" edge="1" parent="1" source="sFdPxBW2ZE7_c-rL9tYe-65" target="sFdPxBW2ZE7_c-rL9tYe-91">
          <mxGeometry relative="1" as="geometry" />
        </mxCell>
        <mxCell id="sFdPxBW2ZE7_c-rL9tYe-104" style="edgeStyle=none;rounded=0;orthogonalLoop=1;jettySize=auto;html=1;" edge="1" parent="1" source="sFdPxBW2ZE7_c-rL9tYe-65" target="sFdPxBW2ZE7_c-rL9tYe-94">
          <mxGeometry relative="1" as="geometry" />
        </mxCell>
        <mxCell id="sFdPxBW2ZE7_c-rL9tYe-105" style="edgeStyle=none;rounded=0;orthogonalLoop=1;jettySize=auto;html=1;" edge="1" parent="1" source="sFdPxBW2ZE7_c-rL9tYe-65" target="sFdPxBW2ZE7_c-rL9tYe-95">
          <mxGeometry relative="1" as="geometry" />
        </mxCell>
        <mxCell id="sFdPxBW2ZE7_c-rL9tYe-108" style="edgeStyle=none;rounded=0;orthogonalLoop=1;jettySize=auto;html=1;" edge="1" parent="1" source="sFdPxBW2ZE7_c-rL9tYe-65" target="sFdPxBW2ZE7_c-rL9tYe-93">
          <mxGeometry relative="1" as="geometry" />
        </mxCell>
        <mxCell id="sFdPxBW2ZE7_c-rL9tYe-109" style="edgeStyle=none;rounded=0;orthogonalLoop=1;jettySize=auto;html=1;" edge="1" parent="1" source="sFdPxBW2ZE7_c-rL9tYe-65" target="sFdPxBW2ZE7_c-rL9tYe-92">
          <mxGeometry relative="1" as="geometry" />
        </mxCell>
        <mxCell id="sFdPxBW2ZE7_c-rL9tYe-65" value="Actor" style="shape=umlActor;verticalLabelPosition=bottom;verticalAlign=top;html=1;outlineConnect=0;" vertex="1" parent="1">
          <mxGeometry x="2250" y="1360" width="30" height="60" as="geometry" />
        </mxCell>
        <mxCell id="sFdPxBW2ZE7_c-rL9tYe-66" value="锁管理:&lt;div&gt;1.根据锁名，提供智能锁服务&lt;/div&gt;&lt;div&gt;2.根据锁名，提供手动上锁服务&lt;/div&gt;&lt;div&gt;3.根据锁名，提供手动解锁服务&lt;/div&gt;&lt;div&gt;4.根据读写锁名，提供读写锁上读锁服务&lt;br&gt;&lt;/div&gt;&lt;div&gt;5.根据读写锁名，提供读写锁解读锁服务&lt;br&gt;&lt;/div&gt;&lt;div&gt;6.根据读写锁名，提供读写锁上锁服务&lt;br&gt;&lt;/div&gt;" style="text;html=1;align=center;verticalAlign=middle;whiteSpace=wrap;rounded=0;" vertex="1" parent="1">
          <mxGeometry x="2100" y="940" width="300" height="200" as="geometry" />
        </mxCell>
        <mxCell id="sFdPxBW2ZE7_c-rL9tYe-31" value="写锁上锁" style="ellipse;whiteSpace=wrap;html=1;" vertex="1" parent="1">
          <mxGeometry x="1340" y="1320" width="120" height="80" as="geometry" />
        </mxCell>
        <mxCell id="sFdPxBW2ZE7_c-rL9tYe-74" style="edgeStyle=none;rounded=0;orthogonalLoop=1;jettySize=auto;html=1;" edge="1" parent="1" source="sFdPxBW2ZE7_c-rL9tYe-70" target="sFdPxBW2ZE7_c-rL9tYe-28">
          <mxGeometry relative="1" as="geometry" />
        </mxCell>
        <mxCell id="sFdPxBW2ZE7_c-rL9tYe-78" value="include" style="edgeLabel;html=1;align=center;verticalAlign=middle;resizable=0;points=[];" vertex="1" connectable="0" parent="sFdPxBW2ZE7_c-rL9tYe-74">
          <mxGeometry x="-0.1215" y="-4" relative="1" as="geometry">
            <mxPoint as="offset" />
          </mxGeometry>
        </mxCell>
        <mxCell id="sFdPxBW2ZE7_c-rL9tYe-70" value="自动读锁与解读锁" style="ellipse;whiteSpace=wrap;html=1;" vertex="1" parent="1">
          <mxGeometry x="715" y="1370" width="120" height="80" as="geometry" />
        </mxCell>
        <mxCell id="sFdPxBW2ZE7_c-rL9tYe-81" style="edgeStyle=none;rounded=0;orthogonalLoop=1;jettySize=auto;html=1;" edge="1" parent="1" source="sFdPxBW2ZE7_c-rL9tYe-71" target="sFdPxBW2ZE7_c-rL9tYe-31">
          <mxGeometry relative="1" as="geometry" />
        </mxCell>
        <mxCell id="sFdPxBW2ZE7_c-rL9tYe-83" value="include" style="edgeLabel;html=1;align=center;verticalAlign=middle;resizable=0;points=[];" vertex="1" connectable="0" parent="sFdPxBW2ZE7_c-rL9tYe-81">
          <mxGeometry x="0.1392" y="1" relative="1" as="geometry">
            <mxPoint as="offset" />
          </mxGeometry>
        </mxCell>
        <mxCell id="sFdPxBW2ZE7_c-rL9tYe-71" value="自动写锁与解写锁" style="ellipse;whiteSpace=wrap;html=1;" vertex="1" parent="1">
          <mxGeometry x="1180" y="1410" width="120" height="80" as="geometry" />
        </mxCell>
        <mxCell id="sFdPxBW2ZE7_c-rL9tYe-73" style="edgeStyle=none;rounded=0;orthogonalLoop=1;jettySize=auto;html=1;entryX=0.083;entryY=0.246;entryDx=0;entryDy=0;entryPerimeter=0;" edge="1" parent="1" source="sFdPxBW2ZE7_c-rL9tYe-18" target="sFdPxBW2ZE7_c-rL9tYe-71">
          <mxGeometry relative="1" as="geometry" />
        </mxCell>
        <mxCell id="sFdPxBW2ZE7_c-rL9tYe-76" style="edgeStyle=none;rounded=0;orthogonalLoop=1;jettySize=auto;html=1;entryX=0.799;entryY=0.09;entryDx=0;entryDy=0;entryPerimeter=0;" edge="1" parent="1" source="sFdPxBW2ZE7_c-rL9tYe-70" target="sFdPxBW2ZE7_c-rL9tYe-29">
          <mxGeometry relative="1" as="geometry" />
        </mxCell>
        <mxCell id="sFdPxBW2ZE7_c-rL9tYe-77" value="include" style="edgeLabel;html=1;align=center;verticalAlign=middle;resizable=0;points=[];" vertex="1" connectable="0" parent="sFdPxBW2ZE7_c-rL9tYe-76">
          <mxGeometry x="-0.0031" y="2" relative="1" as="geometry">
            <mxPoint as="offset" />
          </mxGeometry>
        </mxCell>
        <mxCell id="sFdPxBW2ZE7_c-rL9tYe-82" style="edgeStyle=none;rounded=0;orthogonalLoop=1;jettySize=auto;html=1;entryX=0.278;entryY=0.09;entryDx=0;entryDy=0;entryPerimeter=0;" edge="1" parent="1" source="sFdPxBW2ZE7_c-rL9tYe-71" target="sFdPxBW2ZE7_c-rL9tYe-30">
          <mxGeometry relative="1" as="geometry" />
        </mxCell>
        <mxCell id="sFdPxBW2ZE7_c-rL9tYe-84" value="include" style="edgeLabel;html=1;align=center;verticalAlign=middle;resizable=0;points=[];" vertex="1" connectable="0" parent="sFdPxBW2ZE7_c-rL9tYe-82">
          <mxGeometry x="-0.2646" y="-1" relative="1" as="geometry">
            <mxPoint x="1" as="offset" />
          </mxGeometry>
        </mxCell>
        <mxCell id="sFdPxBW2ZE7_c-rL9tYe-87" value="智能锁" style="ellipse;whiteSpace=wrap;html=1;" vertex="1" parent="1">
          <mxGeometry x="2020" y="1150" width="120" height="80" as="geometry" />
        </mxCell>
        <mxCell id="sFdPxBW2ZE7_c-rL9tYe-88" value="智能读锁" style="ellipse;whiteSpace=wrap;html=1;" vertex="1" parent="1">
          <mxGeometry x="2020" y="1240" width="120" height="80" as="geometry" />
        </mxCell>
        <mxCell id="sFdPxBW2ZE7_c-rL9tYe-89" value="智能写锁" style="ellipse;whiteSpace=wrap;html=1;" vertex="1" parent="1">
          <mxGeometry x="2020" y="1340" width="120" height="80" as="geometry" />
        </mxCell>
        <mxCell id="sFdPxBW2ZE7_c-rL9tYe-90" value="上锁" style="ellipse;whiteSpace=wrap;html=1;" vertex="1" parent="1">
          <mxGeometry x="2020" y="1440" width="120" height="80" as="geometry" />
        </mxCell>
        <mxCell id="sFdPxBW2ZE7_c-rL9tYe-91" value="解锁" style="ellipse;whiteSpace=wrap;html=1;" vertex="1" parent="1">
          <mxGeometry x="2020" y="1540" width="120" height="80" as="geometry" />
        </mxCell>
        <mxCell id="sFdPxBW2ZE7_c-rL9tYe-92" value="上读锁" style="ellipse;whiteSpace=wrap;html=1;" vertex="1" parent="1">
          <mxGeometry x="2340" y="1500" width="120" height="80" as="geometry" />
        </mxCell>
        <mxCell id="sFdPxBW2ZE7_c-rL9tYe-93" value="解读锁" style="ellipse;whiteSpace=wrap;html=1;" vertex="1" parent="1">
          <mxGeometry x="2340" y="1400" width="120" height="80" as="geometry" />
        </mxCell>
        <mxCell id="sFdPxBW2ZE7_c-rL9tYe-94" value="上写锁" style="ellipse;whiteSpace=wrap;html=1;" vertex="1" parent="1">
          <mxGeometry x="2340" y="1190" width="120" height="80" as="geometry" />
        </mxCell>
        <mxCell id="sFdPxBW2ZE7_c-rL9tYe-95" value="解写锁" style="ellipse;whiteSpace=wrap;html=1;" vertex="1" parent="1">
          <mxGeometry x="2340" y="1300" width="120" height="80" as="geometry" />
        </mxCell>
        <mxCell id="sFdPxBW2ZE7_c-rL9tYe-96" style="edgeStyle=none;rounded=0;orthogonalLoop=1;jettySize=auto;html=1;entryX=0.938;entryY=0.767;entryDx=0;entryDy=0;entryPerimeter=0;" edge="1" parent="1" source="sFdPxBW2ZE7_c-rL9tYe-65" target="sFdPxBW2ZE7_c-rL9tYe-87">
          <mxGeometry relative="1" as="geometry" />
        </mxCell>
        <mxCell id="sFdPxBW2ZE7_c-rL9tYe-100" style="edgeStyle=none;rounded=0;orthogonalLoop=1;jettySize=auto;html=1;exitX=1;exitY=0.5;exitDx=0;exitDy=0;" edge="1" parent="1" source="sFdPxBW2ZE7_c-rL9tYe-88" target="sFdPxBW2ZE7_c-rL9tYe-88">
          <mxGeometry relative="1" as="geometry" />
        </mxCell>
      </root>
    </mxGraphModel>
  </diagram>
</mxfile>
